<svg width="74" height="74" viewBox="0 0 74 74" fill="none" xmlns="http://www.w3.org/2000/svg">
<g opacity="0.3">
<path d="M37.5975 24.8741L36.2147 25.235V25.2249L34.8809 24.8374C32.7591 24.2209 31.2113 22.261 31.2113 19.9444C31.2113 17.1308 33.4922 14.85 36.3057 14.85C39.1193 14.85 41.4001 17.1308 41.4001 19.9444C41.4001 22.3096 39.7867 24.3026 37.5975 24.8741ZM22.024 49.2187L23.1457 50.0716L23.1473 50.0704L23.6731 51.3772C23.9084 51.9619 24.0388 52.6022 24.0388 53.2774C24.0388 56.091 21.758 58.3718 18.9444 58.3718C16.1308 58.3718 13.85 56.091 13.85 53.2774C13.85 50.4638 16.1308 48.183 18.9444 48.183C20.1041 48.183 21.1685 48.5683 22.024 49.2187ZM50.252 51.5742L50.7226 50.247L50.7247 50.2484L51.81 49.3501C52.692 48.6202 53.8201 48.183 55.0552 48.183C57.8688 48.183 60.1496 50.4638 60.1496 53.2774C60.1496 56.091 57.8688 58.3718 55.0552 58.3718C52.2417 58.3718 49.9608 56.091 49.9608 53.2774C49.9608 52.6768 50.064 52.1043 50.252 51.5742Z" stroke="white" stroke-width="3.7"/>
</g>
</svg>
