<svg width="24" height="24" viewBox="0 0 24 24" fill="none" xmlns="http://www.w3.org/2000/svg">
<path d="M14.6203 6.00415C14.7187 5.66858 14.5301 5.31567 14.1991 5.2159C13.8682 5.11614 13.5201 5.3073 13.4217 5.64287L9.7041 18.3207C9.6057 18.6563 9.79424 19.0092 10.1252 19.1089C10.4562 19.2087 10.8043 19.0176 10.9027 18.682L14.6203 6.00415Z" fill="white"/>
<path d="M7.17364 9.3488C7.41413 9.09758 7.40823 8.69627 7.16044 8.45244C6.91266 8.20861 6.51683 8.2146 6.27633 8.46582L3.09552 11.7884C2.86009 12.0344 2.86009 12.4255 3.09552 12.6714L6.47514 16.2017C6.71563 16.4529 7.11146 16.4589 7.35924 16.2151C7.60703 15.9712 7.61293 15.5699 7.37244 15.3187L4.41547 12.2299L7.17364 9.3488Z" fill="white"/>
<path d="M18.048 8.46582C17.8075 8.2146 17.4117 8.20861 17.1639 8.45244C16.9161 8.69627 16.9102 9.09758 17.1507 9.3488L19.9089 12.2299L16.9519 15.3187C16.7114 15.5699 16.7173 15.9712 16.9651 16.2151C17.2129 16.4589 17.6087 16.4529 17.8492 16.2017L21.2289 12.6714C21.4643 12.4255 21.4643 12.0344 21.2289 11.7884L18.048 8.46582Z" fill="white"/>
</svg>
