<svg width="24" height="24" viewBox="0 0 24 24" fill="none" xmlns="http://www.w3.org/2000/svg">
<g opacity="0.3">
<path fill-rule="evenodd" clip-rule="evenodd" d="M15.005 3.94043C13.5577 3.94043 12.2252 4.10304 11.2359 4.37845C10.7454 4.51499 10.305 4.68853 9.97322 4.90693C9.66554 5.10948 9.30207 5.45324 9.30207 5.96128V6.07636C7.83114 6.1046 6.49292 6.26003 5.47843 6.50443C4.9205 6.63885 4.42687 6.80799 4.05818 7.01803C3.73613 7.2015 3.29175 7.54234 3.29175 8.09255V11.6447C3.29175 11.9287 3.42356 12.1546 3.56385 12.3118C3.70282 12.4676 3.88058 12.5923 4.06224 12.6939C4.37756 12.8703 4.78641 13.0219 5.25189 13.1493C5.04965 13.2335 4.86589 13.3269 4.70694 13.4304C4.39801 13.6315 4.02885 13.9752 4.02885 14.4864V17.9937C4.02885 18.5023 4.38639 18.852 4.69979 19.0625C5.03475 19.2875 5.47995 19.4665 5.97618 19.6074C6.97687 19.8916 8.32455 20.0593 9.78855 20.0593C11.2526 20.0593 12.6003 19.8914 13.601 19.6071C14.0972 19.4662 14.5424 19.2871 14.8773 19.0622C15.1905 18.8519 15.5483 18.5022 15.5483 17.9937V15.0761C16.7695 15.0342 17.887 14.8669 18.7485 14.6232C19.2448 14.4828 19.687 14.3084 20.0192 14.098C20.3104 13.9135 20.708 13.5786 20.708 13.0655V5.96128C20.708 5.45324 20.3445 5.10948 20.0368 4.90693C19.705 4.68853 19.2646 4.51499 18.7741 4.37845C17.7848 4.10304 16.4524 3.94043 15.005 3.94043ZM10.633 5.90925C10.6033 5.9288 10.5794 5.94618 10.5603 5.96128C10.5794 5.97638 10.6033 5.99376 10.633 6.01331C10.8178 6.13491 11.1247 6.26752 11.5577 6.38807C12.4154 6.62682 13.6344 6.78213 15.005 6.78213C16.3756 6.78213 17.5947 6.62682 18.4523 6.38807C18.8853 6.26752 19.1923 6.13491 19.377 6.01331C19.4067 5.99376 19.4306 5.97638 19.4497 5.96128C19.4306 5.94618 19.4067 5.9288 19.377 5.90925C19.1923 5.78765 18.8853 5.65504 18.4523 5.53449C17.5947 5.29574 16.3756 5.14043 15.005 5.14043C13.6344 5.14043 12.4154 5.29574 11.5577 5.53449C11.1247 5.65504 10.8178 5.78765 10.633 5.90925ZM19.5222 5.88994C19.5222 5.88994 19.5213 5.89105 19.5202 5.89331L19.5209 5.89218C19.5219 5.8907 19.5222 5.88994 19.5222 5.88994ZM18.7741 7.54411C19.036 7.47121 19.2836 7.38777 19.508 7.29259V9.43858C19.4872 9.45895 19.4487 9.49154 19.3812 9.53516C19.1924 9.65724 18.8813 9.7925 18.4478 9.91702C17.5889 10.1638 16.3706 10.3343 15.005 10.3343C13.6395 10.3343 12.3909 10.1638 11.5009 9.91573C11.0518 9.79057 10.7246 9.65402 10.5238 9.5293C10.5228 9.52871 10.5219 9.52812 10.521 9.52754C10.5144 9.52346 10.5081 9.51946 10.5021 9.51557V7.29259C10.7265 7.38777 10.9741 7.47121 11.2359 7.54411C12.2252 7.81952 13.5577 7.98213 15.005 7.98213C16.4524 7.98213 17.7848 7.81952 18.7741 7.54411ZM18.7791 11.0704C19.0401 10.9954 19.2858 10.9107 19.508 10.816V12.9867C19.4862 13.0075 19.4463 13.0404 19.377 13.0843C19.1822 13.2077 18.8631 13.3436 18.4218 13.4685C17.6347 13.6912 16.5567 13.8515 15.3533 13.8814C15.2192 13.6874 15.036 13.5383 14.8702 13.4304C14.5357 13.2126 14.0915 13.0394 13.5963 12.9031C12.7622 12.6734 11.6861 12.5222 10.5021 12.4786V10.8479C10.7111 10.9303 10.9387 11.0048 11.1787 11.0717C12.1923 11.3541 13.5519 11.5343 15.005 11.5343C16.4581 11.5343 17.7913 11.3542 18.7791 11.0704ZM14.3619 14.4149C14.3628 14.4134 14.3631 14.4127 14.3631 14.4127C14.3631 14.4127 14.3622 14.4138 14.3611 14.416L14.3619 14.4149ZM5.47843 9.68067C6.49292 9.92507 7.83114 10.0805 9.30207 10.1088V12.4601C7.90863 12.4293 6.66961 12.2679 5.7637 12.0427C5.25424 11.9161 4.88032 11.7766 4.64811 11.6467C4.57148 11.6038 4.5219 11.5683 4.49175 11.5433V9.37412C4.78269 9.49199 5.11707 9.59362 5.47843 9.68067ZM4.65218 8.12441C4.6324 8.11314 4.61464 8.10251 4.59871 8.09255C4.61464 8.08259 4.6324 8.07197 4.65218 8.0607C4.88031 7.93074 5.25028 7.79373 5.75949 7.67106C6.6647 7.45298 7.90462 7.30476 9.30207 7.27659V8.90852C7.90462 8.88034 6.6647 8.73213 5.75949 8.51405C5.25028 8.39138 4.88031 8.25437 4.65218 8.12441ZM4.46968 7.99145C4.46879 7.99006 4.46816 7.98939 4.46816 7.98939C4.46816 7.98939 4.46872 7.99046 4.47035 7.99253L4.46968 7.99145ZM19.5297 9.41382C19.5297 9.41382 19.5289 9.41479 19.5277 9.41676L19.5287 9.41545C19.5294 9.41438 19.5297 9.41382 19.5297 9.41382ZM10.4879 5.88994C10.4879 5.88994 10.4883 5.89109 10.4898 5.89331L10.4893 5.89216C10.4885 5.89067 10.4879 5.88994 10.4879 5.88994ZM6.29936 14.06C7.16784 13.8209 8.40167 13.6655 9.78855 13.6655C11.1754 13.6655 12.4093 13.8209 13.2777 14.06C13.7162 14.1808 14.0276 14.3137 14.2154 14.436C14.2443 14.4548 14.2678 14.4716 14.2869 14.4864C14.2678 14.5011 14.2443 14.5179 14.2154 14.5368C14.0276 14.659 13.7162 14.792 13.2777 14.9127C12.4093 15.1518 11.1754 15.3072 9.78855 15.3072C8.40167 15.3072 7.16784 15.1518 6.29936 14.9127C5.86087 14.792 5.54947 14.659 5.36171 14.5368C5.3328 14.5179 5.30929 14.5011 5.29024 14.4864C5.30929 14.4716 5.3328 14.4548 5.36171 14.436C5.54947 14.3137 5.86087 14.1808 6.29936 14.06ZM13.5963 16.0697C13.8651 15.9956 14.1189 15.9108 14.3483 15.8138V17.9495C14.3317 17.9698 14.2926 18.0094 14.2083 18.066C14.021 18.1918 13.7106 18.3285 13.2731 18.4528C12.4063 18.6991 11.1741 18.8593 9.78855 18.8593C8.40292 18.8593 7.17076 18.6992 6.304 18.4531C5.86651 18.3288 5.55609 18.1921 5.36886 18.0663C5.28446 18.0096 5.24541 17.97 5.22885 17.9497V15.8138C5.45821 15.9108 5.712 15.9956 5.98082 16.0697C6.97979 16.3447 8.32581 16.5072 9.78855 16.5072C11.2513 16.5072 12.5973 16.3447 13.5963 16.0697ZM5.2154 14.4149C5.2146 14.4134 5.214 14.4127 5.214 14.4127C5.214 14.4127 5.21447 14.4138 5.21599 14.416L5.2154 14.4149Z" fill="white"/>
</g>
</svg>
