<svg width="24" height="24" viewBox="0 0 24 24" fill="none" xmlns="http://www.w3.org/2000/svg">
<path fill-rule="evenodd" clip-rule="evenodd" d="M5.87365 5.12426C6.24772 4.75019 6.75507 4.54004 7.28409 4.54004H16.6673C17.1964 4.54004 17.7037 4.75019 18.0778 5.12426C18.4519 5.49834 18.662 6.00569 18.662 6.5347V13.5015L19.66 17.0308C19.7438 17.3274 19.7578 17.6394 19.7008 17.9423C19.6438 18.2452 19.5173 18.5308 19.3314 18.7766C19.1455 19.0224 18.9052 19.2218 18.6292 19.3591C18.3533 19.4964 18.0491 19.568 17.7409 19.568H6.21038C5.90217 19.568 5.59817 19.4964 5.32224 19.3591C5.04632 19.2218 4.80597 19.0224 4.62005 18.7766C4.43414 18.5308 4.30772 18.2452 4.25071 17.9423C4.19371 17.6394 4.20769 17.3274 4.29152 17.0308L5.28942 13.5017V6.5347C5.28942 6.00569 5.49957 5.49834 5.87365 5.12426ZM17.4325 12.9721H6.51897V6.5347C6.51897 6.33178 6.59958 6.13717 6.74307 5.99369C6.88656 5.8502 7.08117 5.76959 7.28409 5.76959H16.6673C16.8703 5.76959 17.0649 5.8502 17.2084 5.99369C17.3518 6.13717 17.4325 6.33178 17.4325 6.5347V12.9721ZM6.36914 14.2021L5.4747 17.3653C5.44256 17.479 5.43719 17.5987 5.45905 17.7149C5.48092 17.8311 5.52941 17.9406 5.60072 18.0349C5.67204 18.1292 5.76423 18.2057 5.87007 18.2584C5.97586 18.311 6.0924 18.3384 6.21056 18.3385H17.7409C17.8591 18.3384 17.9756 18.311 18.0814 18.2584C18.1873 18.2057 18.2794 18.1292 18.3508 18.0349C18.4221 17.9406 18.4706 17.8311 18.4924 17.7149C18.5143 17.5987 18.5089 17.479 18.4768 17.3653L17.5823 14.2021H6.36914Z" fill="white"/>
<path d="M11.0308 8.34915C11.2708 8.10907 11.2708 7.71981 11.0308 7.47973C10.7907 7.23965 10.4014 7.23965 10.1613 7.47973L8.78145 8.85962C8.66616 8.97491 8.60138 9.13128 8.60138 9.29433C8.60138 9.45738 8.66616 9.61375 8.78145 9.72904L10.1613 11.1089C10.4014 11.349 10.7907 11.349 11.0308 11.1089C11.2708 10.8688 11.2708 10.4796 11.0308 10.2395L10.0856 9.29433L11.0308 8.34915Z" fill="white"/>
<path d="M13.7905 7.47973C13.5505 7.23965 13.1612 7.23965 12.9211 7.47973C12.681 7.71981 12.681 8.10907 12.9211 8.34915L13.8663 9.29433L12.9211 10.2395C12.681 10.4796 12.681 10.8688 12.9211 11.1089C13.1612 11.349 13.5505 11.349 13.7905 11.1089L15.1704 9.72904C15.2857 9.61375 15.3505 9.45738 15.3505 9.29433C15.3505 9.13128 15.2857 8.97491 15.1704 8.85962L13.7905 7.47973Z" fill="white"/>
<path d="M11.286 16.269C10.9465 16.269 10.6712 16.5442 10.6712 16.8837C10.6712 17.2233 10.9465 17.4985 11.286 17.4985H12.6659C13.0054 17.4985 13.2807 17.2233 13.2807 16.8837C13.2807 16.5442 13.0054 16.269 12.6659 16.269H11.286Z" fill="white"/>
</svg>
