<svg width="24" height="24" viewBox="0 0 24 24" fill="none" xmlns="http://www.w3.org/2000/svg">
<path fill-rule="evenodd" clip-rule="evenodd" d="M11.8378 4.21582C9.76406 4.21582 7.85877 4.51976 6.44911 5.03122C5.74681 5.28604 5.13403 5.60436 4.68509 5.98947C4.23784 6.37314 3.89185 6.88028 3.89185 7.49601C3.89185 8.11174 4.23784 8.61888 4.68509 9.00255C4.93552 9.21737 5.23692 9.41141 5.57641 9.58524C5.28226 9.74114 5.01784 9.91196 4.7906 10.0977C4.2841 10.5117 3.89185 11.0625 3.89185 11.7341C3.89185 12.3545 4.22774 12.8734 4.67606 13.273C4.93851 13.5069 5.25739 13.7174 5.61784 13.9049C5.30706 14.0666 5.02846 14.2447 4.7906 14.4391C4.2841 14.8531 3.89185 15.4039 3.89185 16.0755C3.89185 16.6959 4.22774 17.2149 4.67606 17.6145C5.12452 18.0142 5.7378 18.3454 6.44163 18.6107C7.85369 19.143 9.76169 19.4591 11.8378 19.4591C13.9139 19.4591 15.8219 19.143 17.234 18.6107C17.9378 18.3454 18.5511 18.0142 18.9995 17.6145C19.4478 17.2149 19.7837 16.6959 19.7837 16.0755C19.7837 15.404 19.3917 14.8532 18.8851 14.4391C18.6473 14.2447 18.3687 14.0666 18.0578 13.9049C18.4182 13.7174 18.7371 13.5069 18.9995 13.273C19.4478 12.8734 19.7837 12.3545 19.7837 11.7341C19.7837 11.0625 19.3917 10.5118 18.8851 10.0977C18.6579 9.91196 18.3935 9.74112 18.0993 9.5852C18.4387 9.41138 18.7401 9.21735 18.9905 9.00255C19.4377 8.61888 19.7837 8.11174 19.7837 7.49601C19.7837 6.88028 19.4377 6.37314 18.9905 5.98947C18.5416 5.60436 17.9288 5.28604 17.2265 5.03122C15.8168 4.51976 13.9115 4.21582 11.8378 4.21582ZM5.1593 7.49601C5.1593 7.37911 5.22253 7.1883 5.51531 6.93714C5.80641 6.68743 6.26448 6.43406 6.88543 6.20875C8.12228 5.75999 9.8731 5.47001 11.8378 5.47001C13.8025 5.47001 15.5533 5.75999 16.7901 6.20875C17.4111 6.43406 17.8692 6.68743 18.1603 6.93714C18.4531 7.1883 18.5163 7.37911 18.5163 7.49601C18.5163 7.61292 18.4531 7.80373 18.1603 8.05488C17.8692 8.3046 17.4111 8.55797 16.7901 8.78327C15.5533 9.23203 13.8025 9.52201 11.8378 9.52201C9.8731 9.52201 8.12228 9.23203 6.88543 8.78327C6.26448 8.55797 5.80641 8.3046 5.51531 8.05488C5.22253 7.80373 5.1593 7.61292 5.1593 7.49601ZM7.20292 10.2611C7.23298 10.251 7.26178 10.239 7.28923 10.2252C8.57679 10.5753 10.1516 10.7762 11.8378 10.7762C13.524 10.7762 15.0988 10.5753 16.3864 10.2252C16.4138 10.239 16.4426 10.2511 16.4727 10.2611C17.1897 10.4998 17.7298 10.7801 18.0779 11.0646C18.4296 11.3521 18.5163 11.5823 18.5163 11.7341C18.5163 11.8749 18.443 12.0811 18.1513 12.3411C17.8597 12.601 17.4022 12.8637 16.7828 13.0972C15.5483 13.5625 13.8002 13.8634 11.8378 13.8634C9.87536 13.8634 8.12724 13.5625 6.89283 13.0972C6.27342 12.8637 5.81587 12.601 5.52431 12.3411C5.23261 12.0811 5.1593 11.8749 5.1593 11.7341C5.1593 11.5824 5.24599 11.3522 5.59777 11.0647C5.94595 10.7801 6.48609 10.4998 7.20292 10.2611ZM7.20292 14.6025C7.24233 14.5894 7.27958 14.5728 7.31444 14.5532C8.5982 14.912 10.1633 15.1176 11.8378 15.1176C13.5123 15.1176 15.0774 14.912 16.3611 14.5532C16.396 14.5728 16.4333 14.5894 16.4727 14.6025C17.1897 14.8413 17.7298 15.1215 18.0779 15.4061C18.4296 15.6936 18.5163 15.9238 18.5163 16.0755C18.5163 16.2163 18.443 16.4226 18.1513 16.6826C17.8597 16.9424 17.4022 17.2052 16.7828 17.4387C15.5483 17.904 13.8002 18.2049 11.8378 18.2049C9.87536 18.2049 8.12724 17.904 6.89283 17.4387C6.27342 17.2052 5.81587 16.9424 5.52431 16.6826C5.23261 16.4226 5.1593 16.2163 5.1593 16.0755C5.1593 15.9239 5.24599 15.6936 5.59777 15.4061C5.94595 15.1215 6.48609 14.8412 7.20292 14.6025Z" fill="white"/>
</svg>
