<svg width="24" height="24" viewBox="0 0 24 24" fill="none" xmlns="http://www.w3.org/2000/svg">
<path d="M12.5999 7.94584C12.5999 7.61446 12.3313 7.34583 11.9999 7.34583C11.6685 7.34583 11.3999 7.61446 11.3999 7.94584V8.96851C10.4395 9.00269 9.77827 9.86611 9.77827 10.7837C9.77827 11.7173 10.4665 12.5991 11.4591 12.5991H12.5407C12.7417 12.5991 13.0215 12.8062 13.0215 13.2153C13.0215 13.6233 12.7419 13.8307 12.5407 13.8307H11.4591C11.4547 13.8307 11.4503 13.8307 11.4459 13.8308C11.4426 13.8309 11.4393 13.831 11.4359 13.8311C11.2975 13.8365 11.1261 13.7558 11.0201 13.5489C10.8689 13.254 10.5073 13.1375 10.2125 13.2886C9.91755 13.4398 9.80101 13.8013 9.95215 14.0962C10.2328 14.6439 10.7749 15.0229 11.3999 15.0313V16.0539C11.3999 16.3853 11.6685 16.6539 11.9999 16.6539C12.3313 16.6539 12.5999 16.3853 12.5999 16.0539V15.0297C13.5603 14.9954 14.2215 14.1313 14.2215 13.2153C14.2215 12.2801 13.5333 11.3991 12.5407 11.3991H11.4591C11.2581 11.3991 10.9783 11.1912 10.9783 10.7837C10.9783 10.374 11.2579 10.1675 11.4591 10.1675H12.5407C12.5484 10.1675 12.5561 10.1673 12.5639 10.167C12.7022 10.1617 12.8737 10.2424 12.9797 10.4492C13.1308 10.7441 13.4924 10.8607 13.7873 10.7095C14.0822 10.5584 14.1988 10.1968 14.0476 9.90191C13.767 9.35427 13.2248 8.97522 12.5999 8.96686V7.94584Z" fill="white"/>
<path fill-rule="evenodd" clip-rule="evenodd" d="M11.9999 3.94043C10.9415 3.94043 9.89349 4.14889 8.91567 4.55392C7.93785 4.95895 7.04938 5.5526 6.30099 6.30099C5.5526 7.04938 4.95895 7.93785 4.55392 8.91567C4.14889 9.89349 3.94043 10.9415 3.94043 11.9999C3.94043 13.0583 4.14889 14.1063 4.55392 15.0841C4.95895 16.0619 5.5526 16.9504 6.30099 17.6988C7.04938 18.4472 7.93785 19.0408 8.91567 19.4459C9.89349 19.8509 10.9415 20.0593 11.9999 20.0593C13.0583 20.0593 14.1063 19.8509 15.0841 19.4459C16.0619 19.0408 16.9504 18.4472 17.6988 17.6988C18.4472 16.9504 19.0408 16.0619 19.4459 15.0841C19.8509 14.1063 20.0593 13.0583 20.0593 11.9999C20.0593 10.9415 19.8509 9.89349 19.4459 8.91567C19.0408 7.93785 18.4472 7.04938 17.6988 6.30099C16.9504 5.5526 16.0619 4.95895 15.0841 4.55392C14.1063 4.14889 13.0583 3.94043 11.9999 3.94043ZM9.37489 5.66258C10.2071 5.31786 11.0991 5.14043 11.9999 5.14043C12.9007 5.14043 13.7927 5.31786 14.6249 5.66258C15.4571 6.0073 16.2133 6.51256 16.8503 7.14952C17.4872 7.78648 17.9925 8.54266 18.3372 9.37489C18.6819 10.2071 18.8593 11.0991 18.8593 11.9999C18.8593 12.9007 18.6819 13.7927 18.3372 14.6249C18.0693 15.2718 17.7043 15.8727 17.2559 16.4074L15.4671 14.6184C15.2328 14.384 14.8529 14.384 14.6186 14.6183C14.3842 14.8526 14.3842 15.2325 14.6185 15.4668L16.4074 17.2559C15.8727 17.7043 15.2718 18.0693 14.6249 18.3372C13.7927 18.6819 12.9007 18.8593 11.9999 18.8593C11.0991 18.8593 10.2071 18.6819 9.37489 18.3372C8.54266 17.9925 7.78648 17.4872 7.14952 16.8503C6.51256 16.2133 6.00729 15.4571 5.66257 14.6249C5.31785 13.7927 5.14043 12.9007 5.14043 11.9999C5.14043 11.0991 5.31785 10.2071 5.66257 9.37489C5.93052 8.72801 6.29546 8.12708 6.74385 7.59237L8.58686 9.43518C8.82119 9.66948 9.20109 9.66946 9.43539 9.43513C9.66969 9.2008 9.66967 8.8209 9.43534 8.5866L7.59238 6.74384C8.12708 6.29546 8.72801 5.93052 9.37489 5.66258Z" fill="white"/>
</svg>
