<svg width="24" height="24" viewBox="0 0 24 24" fill="none" xmlns="http://www.w3.org/2000/svg">
<path d="M7.41072 6.1625C7.41072 5.83113 7.14209 5.5625 6.81072 5.5625C6.47935 5.5625 6.21072 5.83113 6.21072 6.1625V9.08142C6.21072 9.24055 6.27394 9.39316 6.38646 9.50568C6.49898 9.61821 6.65159 9.68142 6.81072 9.68142L9.72964 9.68142C10.061 9.68142 10.3296 9.41279 10.3296 9.08142C10.3296 8.75005 10.061 8.48142 9.72964 8.48142H8.12897C11.8192 4.99233 17.6374 7.93093 17.2401 12.4339C17.211 12.764 17.4549 13.0552 17.785 13.0843C18.1151 13.1135 18.4063 12.8695 18.4354 12.5394C18.9361 6.86499 11.8366 3.49212 7.41072 7.51159V6.1625Z" fill="white"/>
<path d="M6.64625 11.8398C6.67537 11.5097 6.4314 11.2185 6.10131 11.1894C5.77122 11.1603 5.48002 11.4043 5.45089 11.7343C4.95019 17.4088 12.0497 20.7816 16.4756 16.7622V18.1112C16.4756 18.4426 16.7442 18.7112 17.0756 18.7112C17.407 18.7112 17.6756 18.4426 17.6756 18.1112V15.1923C17.6756 14.861 17.407 14.5923 17.0756 14.5923H14.1567C13.8253 14.5923 13.5567 14.861 13.5567 15.1923C13.5567 15.5237 13.8253 15.7923 14.1567 15.7923H15.7574C12.0671 19.2814 6.24891 16.3428 6.64625 11.8398Z" fill="white"/>
</svg>
