<svg width="24" height="24" viewBox="0 0 24 24" fill="none" xmlns="http://www.w3.org/2000/svg">
<path d="M9.56194 11.5274C9.50064 11.4683 9.42777 11.4214 9.34753 11.3894C9.26728 11.3574 9.18124 11.3409 9.09434 11.3409C9.00745 11.3409 8.92141 11.3574 8.84116 11.3894C8.76092 11.4214 8.68805 11.4683 8.62675 11.5274C8.56516 11.5862 8.5163 11.6561 8.48295 11.7331C8.44961 11.8101 8.43244 11.8927 8.43244 11.976C8.43244 12.0594 8.44961 12.142 8.48295 12.219C8.5163 12.296 8.56516 12.3659 8.62675 12.4247L11.0428 14.743C11.1008 14.7987 11.1697 14.8429 11.2455 14.8731C11.3213 14.9033 11.4026 14.9188 11.4847 14.9188C11.5668 14.9188 11.6481 14.9033 11.7239 14.8731C11.7997 14.8429 11.8686 14.7987 11.9266 14.743L16.0329 10.8028C16.091 10.7472 16.1371 10.6811 16.1686 10.6083C16.2 10.5356 16.2162 10.4576 16.2162 10.3788C16.2162 10.3001 16.2 10.2221 16.1686 10.1493C16.1371 10.0766 16.091 10.0105 16.0329 9.95483L15.9815 9.90547C15.9235 9.84973 15.8546 9.8055 15.7788 9.77533C15.703 9.74515 15.6217 9.72962 15.5396 9.72962C15.4575 9.72962 15.3763 9.74515 15.3004 9.77533C15.2246 9.8055 15.1557 9.84973 15.0978 9.90547L11.4838 13.3714L9.56194 11.5274Z" fill="white"/>
<path fill-rule="evenodd" clip-rule="evenodd" d="M12.1109 3.97196C11.9864 3.92992 11.8515 3.92992 11.727 3.97196L5.48373 6.08007C5.23986 6.16242 5.07568 6.39114 5.07568 6.64854V13.6215C5.07568 14.8618 5.44913 16.4643 6.50682 17.7695C7.58332 19.098 9.32182 20.0593 11.9189 20.0593C14.516 20.0593 16.2545 19.098 17.331 17.7695C18.3887 16.4643 18.7622 14.8618 18.7622 13.6215V6.64854C18.7622 6.39114 18.598 6.16242 18.3541 6.08007L12.1109 3.97196ZM7.43914 17.014C6.59143 15.9679 6.27568 14.6515 6.27568 13.6215V7.07922L11.9189 5.17371L17.5622 7.07922V13.6215C17.5622 14.6515 17.2464 15.9679 16.3987 17.014C15.5698 18.0369 14.1867 18.8593 11.9189 18.8593C9.65117 18.8593 8.26805 18.0369 7.43914 17.014Z" fill="white"/>
</svg>
