<svg width="24" height="24" viewBox="0 0 24 24" fill="none" xmlns="http://www.w3.org/2000/svg">
<g opacity="0.3">
<path fill-rule="evenodd" clip-rule="evenodd" d="M10.1634 14.8522C10.7532 15.2291 11.4465 15.4303 12.1558 15.4303C12.6281 15.4349 13.0966 15.3493 13.5338 15.1785C13.9711 15.0077 14.3683 14.7552 14.7023 14.4358C15.0363 14.1163 15.3002 13.7364 15.4788 13.3181C15.6573 12.8999 15.7468 12.4517 15.742 12C15.742 11.3216 15.5317 10.6583 15.1376 10.0942C14.7435 9.53014 14.1835 9.09048 13.5282 8.83085C12.8729 8.57122 12.1518 8.50329 11.4562 8.63564C10.7605 8.768 10.1215 9.0947 9.61998 9.57443C9.11844 10.0542 8.77689 10.6654 8.63852 11.3308C8.50014 11.9962 8.57116 12.6859 8.84259 13.3127C9.11402 13.9395 9.57367 14.4752 10.1634 14.8522ZM11.2322 9.87289C11.5256 9.76045 11.8398 9.70611 12.1558 9.71315C12.4718 9.70611 12.786 9.76045 13.0793 9.87289C13.3727 9.98532 13.6392 10.1535 13.8627 10.3673C14.0862 10.5811 14.2621 10.836 14.3796 11.1166C14.4971 11.3972 14.5539 11.6978 14.5466 12C14.5539 12.3022 14.4971 12.6028 14.3796 12.8834C14.2621 13.164 14.0862 13.4189 13.8627 13.6327C13.6392 13.8465 13.3727 14.0147 13.0793 14.1271C12.786 14.2395 12.4718 14.2939 12.1558 14.2868C11.8398 14.2939 11.5256 14.2395 11.2322 14.1271C10.9389 14.0147 10.6724 13.8465 10.4489 13.6327C10.2254 13.4189 10.0495 13.164 9.93199 12.8834C9.81445 12.6028 9.75764 12.3022 9.765 12C9.75764 11.6978 9.81445 11.3972 9.93199 11.1166C10.0495 10.836 10.2254 10.5811 10.4489 10.3673C10.6724 10.1535 10.9389 9.98532 11.2322 9.87289Z" fill="white"/>
<path fill-rule="evenodd" clip-rule="evenodd" d="M18.5586 11.5356V12.4584L19.686 13.5018C19.8941 13.6863 20.0323 13.9382 20.0769 14.2144C20.1215 14.4906 20.0698 14.7739 19.9306 15.0157L18.5705 17.4282C18.4659 17.6114 18.3155 17.7636 18.1343 17.8694C17.9532 17.9753 17.7477 18.0311 17.5385 18.0314C17.4089 18.0324 17.2799 18.012 17.1567 17.9711L15.7132 17.4765C15.4608 17.6446 15.1978 17.7958 14.9258 17.9288L14.6215 19.4487C14.567 19.7264 14.4176 19.9758 14.1995 20.1534C13.9814 20.3309 13.7084 20.4252 13.4285 20.4198H10.6129C10.333 20.4252 10.0601 20.3309 9.84195 20.1534C9.62384 19.9758 9.47444 19.7264 9.41989 19.4487L9.11566 17.9288C8.84525 17.7963 8.58415 17.6452 8.33422 17.4765L6.88468 17.9711C6.76151 18.012 6.63256 18.0324 6.50291 18.0314C6.2937 18.0311 6.08822 17.9753 5.90708 17.8694C5.72595 17.7636 5.57554 17.6114 5.47093 17.4282L4.06315 15.0157C3.91753 14.7715 3.8622 14.483 3.90698 14.2014C3.95175 13.9199 4.09373 13.6635 4.30772 13.4777L5.43514 12.4644V11.5417L4.30772 10.4982C4.09961 10.3138 3.96141 10.0619 3.91679 9.78567C3.87217 9.50949 3.92391 9.22622 4.06315 8.98437L5.47093 6.57184C5.57554 6.38865 5.72595 6.23649 5.90708 6.13062C6.08822 6.02476 6.2937 5.96892 6.50291 5.96871C6.63127 5.95988 6.76019 5.9721 6.88468 6.00489L8.3044 6.52359C8.55673 6.35543 8.81977 6.20432 9.0918 6.07124L9.39603 4.55134C9.45058 4.27366 9.59998 4.02423 9.81809 3.84671C10.0362 3.66918 10.3091 3.57488 10.5891 3.5803H13.3808C13.6607 3.57488 13.9336 3.66918 14.1518 3.84671C14.3699 4.02423 14.5193 4.27366 14.5738 4.55134L14.878 6.07124C15.1485 6.20375 15.4096 6.35489 15.6595 6.52359L17.109 6.02902C17.2322 5.98807 17.3611 5.9677 17.4908 5.96871C17.7 5.96892 17.9055 6.02476 18.0866 6.13062C18.2678 6.23649 18.4182 6.38865 18.5228 6.57184L19.9306 8.98437C20.0783 9.22658 20.1365 9.51379 20.095 9.79522C20.0536 10.0767 19.915 10.3342 19.7039 10.5224L18.5586 11.5356ZM15.4447 16.1255L17.4908 16.8251L18.8986 14.4126L17.276 12.9228C17.3863 12.2985 17.3863 11.6594 17.276 11.035L18.8986 9.5875L17.4908 7.17497L15.4388 7.85048C14.9579 7.44624 14.4135 7.12618 13.8282 6.90356L13.4046 4.76244H10.5891L10.1655 6.92769C9.57556 7.14423 9.02823 7.46483 8.54897 7.87461L6.50291 7.17497L5.09512 9.5875L6.71766 11.0772C6.60736 11.7016 6.60736 12.3407 6.71766 12.965L5.09512 14.4126L6.50291 16.8251L8.55494 16.1496C9.03582 16.5538 9.5802 16.8739 10.1655 17.0965L10.5891 19.2376H13.4046L13.8282 17.0724C14.4181 16.8558 14.9655 16.5352 15.4447 16.1255Z" fill="white"/>
</g>
</svg>
