<svg width="24" height="24" viewBox="0 0 24 24" fill="none" xmlns="http://www.w3.org/2000/svg">
<path d="M14.5503 9.61171C15.018 9.61171 15.4666 9.80042 15.7973 10.1363C16.128 10.4722 16.3138 10.9278 16.3138 11.4029V16.3775C16.3138 17.5389 15.8596 18.6528 15.051 19.474C14.2424 20.2953 13.1457 20.7567 12.0022 20.7567C10.8587 20.7567 9.76206 20.2953 8.95348 19.474C8.1449 18.6528 7.69064 17.5389 7.69064 16.3775V11.4029C7.69064 10.9278 7.87644 10.4722 8.20717 10.1363C8.53789 9.80042 8.98644 9.61171 9.45416 9.61171H14.5503ZM14.5503 10.8058H9.45416C9.29825 10.8058 9.14873 10.8687 9.03849 10.9807C8.92825 11.0927 8.86632 11.2445 8.86632 11.4029V16.3775C8.86632 17.2222 9.19671 18.0324 9.78481 18.6297C10.3729 19.227 11.1705 19.5626 12.0022 19.5626C12.8339 19.5626 13.6316 19.227 14.2197 18.6297C14.8078 18.0324 15.1382 17.2222 15.1382 16.3775V11.4029C15.1382 11.2445 15.0762 11.0927 14.966 10.9807C14.8557 10.8687 14.7062 10.8058 14.5503 10.8058ZM4.358 9.61171H7.6154C7.30073 9.94448 7.07961 10.3568 6.97505 10.8058H4.358C4.20209 10.8058 4.05257 10.8687 3.94233 10.9807C3.83209 11.0927 3.77016 11.2445 3.77016 11.4029V15.5814C3.77005 15.9809 3.86855 16.3739 4.05665 16.7247C4.24475 17.0755 4.51644 17.3728 4.84687 17.5894C5.1773 17.806 5.55593 17.9349 5.94812 17.9645C6.3403 17.9941 6.73353 17.9233 7.09183 17.7587C7.19608 18.1488 7.34578 18.5197 7.53389 18.8668C6.99689 19.1049 6.40995 19.2035 5.82608 19.1535C5.2422 19.1035 4.67977 18.9066 4.18958 18.5806C3.69939 18.2545 3.29688 17.8096 3.01839 17.286C2.73991 16.7624 2.59422 16.1766 2.59448 15.5814V11.4029C2.59448 10.9278 2.78028 10.4722 3.111 10.1363C3.44173 9.80042 3.89028 9.61171 4.358 9.61171ZM19.6418 9.61171C20.1095 9.61171 20.558 9.80042 20.8888 10.1363C21.2195 10.4722 21.4053 10.9278 21.4053 11.4029V15.5822C21.4055 16.177 21.2599 16.7625 20.9817 17.2859C20.7034 17.8092 20.3012 18.254 19.8114 18.58C19.3216 18.906 18.7596 19.103 18.176 19.1532C17.5925 19.2034 17.0059 19.1053 16.469 18.8676L16.5129 18.7864C16.6806 18.4632 16.8162 18.1201 16.9134 17.7603C17.2715 17.9239 17.6643 17.9939 18.0559 17.9638C18.4474 17.9336 18.8253 17.8044 19.1551 17.5878C19.4848 17.3712 19.7559 17.0742 19.9436 16.7239C20.1313 16.3736 20.2296 15.9811 20.2296 15.5822V11.4029C20.2296 11.2447 20.1678 11.0929 20.0577 10.981C19.9476 10.869 19.7983 10.806 19.6426 10.8058H17.0302C16.9255 10.3567 16.7041 9.94436 16.3891 9.61171H19.6418ZM11.9999 3.24316C12.3601 3.24316 12.7169 3.31523 13.0497 3.45525C13.3825 3.59528 13.6849 3.80051 13.9397 4.05924C14.1944 4.31796 14.3965 4.62511 14.5343 4.96316C14.6722 5.3012 14.7431 5.66351 14.7431 6.0294C14.7431 6.3953 14.6722 6.75761 14.5343 7.09565C14.3965 7.4337 14.1944 7.74085 13.9397 7.99957C13.6849 8.2583 13.3825 8.46353 13.0497 8.60356C12.7169 8.74358 12.3601 8.81565 11.9999 8.81565C11.2723 8.81565 10.5746 8.5221 10.0601 7.99957C9.54566 7.47705 9.25664 6.76836 9.25664 6.0294C9.25664 5.29045 9.54566 4.58176 10.0601 4.05924C10.5746 3.53671 11.2723 3.24316 11.9999 3.24316ZM18.2725 4.03923C18.5813 4.03923 18.8871 4.10101 19.1723 4.22102C19.4576 4.34104 19.7168 4.51696 19.9352 4.73872C20.1535 4.96049 20.3267 5.22376 20.4449 5.51351C20.563 5.80326 20.6239 6.11382 20.6239 6.42744C20.6239 6.74106 20.563 7.05162 20.4449 7.34137C20.3267 7.63112 20.1535 7.89439 19.9352 8.11616C19.7168 8.33792 19.4576 8.51384 19.1723 8.63385C18.8871 8.75387 18.5813 8.81565 18.2725 8.81565C17.6489 8.81565 17.0508 8.56403 16.6099 8.11616C16.1689 7.66828 15.9212 7.06083 15.9212 6.42744C15.9212 5.79405 16.1689 5.1866 16.6099 4.73872C17.0508 4.29085 17.6489 4.03923 18.2725 4.03923ZM5.72727 4.03923C6.03605 4.03923 6.34181 4.10101 6.62709 4.22102C6.91237 4.34104 7.17158 4.51696 7.38992 4.73872C7.60827 4.96049 7.78147 5.22376 7.89963 5.51351C8.0178 5.80326 8.07862 6.11382 8.07862 6.42744C8.07862 6.74106 8.0178 7.05162 7.89963 7.34137C7.78147 7.63112 7.60827 7.89439 7.38992 8.11616C7.17158 8.33792 6.91237 8.51384 6.62709 8.63385C6.34181 8.75387 6.03605 8.81565 5.72727 8.81565C5.10365 8.81565 4.50557 8.56403 4.06461 8.11616C3.62365 7.66828 3.37592 7.06083 3.37592 6.42744C3.37592 5.79405 3.62365 5.1866 4.06461 4.73872C4.50557 4.29085 5.10365 4.03923 5.72727 4.03923ZM11.9999 4.43727C11.5841 4.43727 11.1854 4.60501 10.8914 4.90359C10.5975 5.20218 10.4323 5.60714 10.4323 6.0294C10.4323 6.45167 10.5975 6.85663 10.8914 7.15522C11.1854 7.4538 11.5841 7.62154 11.9999 7.62154C12.4156 7.62154 12.8143 7.4538 13.1083 7.15522C13.4023 6.85663 13.5675 6.45167 13.5675 6.0294C13.5675 5.60714 13.4023 5.20218 13.1083 4.90359C12.8143 4.60501 12.4156 4.43727 11.9999 4.43727ZM18.2725 5.23334C18.1181 5.23334 17.9652 5.26422 17.8226 5.32423C17.68 5.38424 17.5504 5.4722 17.4412 5.58308C17.332 5.69396 17.2454 5.8256 17.1863 5.97048C17.1272 6.11535 17.0968 6.27063 17.0968 6.42744C17.0968 6.58425 17.1272 6.73953 17.1863 6.8844C17.2454 7.02928 17.332 7.16092 17.4412 7.2718C17.5504 7.38268 17.68 7.47064 17.8226 7.53065C17.9652 7.59066 18.1181 7.62154 18.2725 7.62154C18.5843 7.62154 18.8834 7.49574 19.1038 7.2718C19.3243 7.04786 19.4482 6.74414 19.4482 6.42744C19.4482 6.11074 19.3243 5.80702 19.1038 5.58308C18.8834 5.35914 18.5843 5.23334 18.2725 5.23334ZM5.72727 5.23334C5.57287 5.23334 5.41999 5.26422 5.27735 5.32423C5.13472 5.38424 5.00511 5.4722 4.89594 5.58308C4.78677 5.69396 4.70017 5.8256 4.64108 5.97048C4.582 6.11535 4.55159 6.27063 4.55159 6.42744C4.55159 6.58425 4.582 6.73953 4.64108 6.8844C4.70017 7.02928 4.78677 7.16092 4.89594 7.2718C5.00511 7.38268 5.13472 7.47064 5.27735 7.53065C5.41999 7.59066 5.57287 7.62154 5.72727 7.62154C6.03908 7.62154 6.33811 7.49574 6.55859 7.2718C6.77908 7.04786 6.90294 6.74414 6.90294 6.42744C6.90294 6.11074 6.77908 5.80702 6.55859 5.58308C6.33811 5.35914 6.03908 5.23334 5.72727 5.23334Z" fill="white"/>
</svg>
