<svg width="24" height="24" viewBox="0 0 24 24" fill="none" xmlns="http://www.w3.org/2000/svg">
<path d="M12.1624 9.50659C12.4937 9.50659 12.7624 9.77522 12.7624 10.1066V13.4916C12.7624 13.823 12.4937 14.0916 12.1624 14.0916C11.831 14.0916 11.5624 13.823 11.5624 13.4916V10.1066C11.5624 9.77522 11.831 9.50659 12.1624 9.50659Z" fill="white"/>
<path d="M12.7624 15.3525C12.7624 15.0211 12.4937 14.7525 12.1624 14.7525C11.831 14.7525 11.5624 15.0211 11.5624 15.3525V15.8766C11.5624 16.208 11.831 16.4766 12.1624 16.4766C12.4937 16.4766 12.7624 16.208 12.7624 15.8766V15.3525Z" fill="white"/>
<path fill-rule="evenodd" clip-rule="evenodd" d="M12.1702 4.64163C12.5956 4.6444 12.9877 4.8722 13.2009 5.24036L20.0238 17.0255C20.2388 17.3967 20.2392 17.8545 20.0249 18.2261C19.8106 18.5977 19.4143 18.8267 18.9853 18.8267H5.13262C4.70085 18.8267 4.30236 18.5948 4.08914 18.2193C3.87592 17.8439 3.88085 17.3828 4.10203 17.012L11.1318 5.22687C11.3497 4.86152 11.7448 4.63885 12.1702 4.64163ZM5.13262 17.6267H18.9853L12.1623 5.8416L5.13262 17.6267Z" fill="white"/>
</svg>
