<svg width="24" height="24" viewBox="0 0 24 24" fill="none" xmlns="http://www.w3.org/2000/svg">
<path fill-rule="evenodd" clip-rule="evenodd" d="M12.1802 2.91895C8.86407 2.91895 5.97324 4.7092 4.43077 7.37638L4.4282 7.38083C3.67422 8.68633 3.24316 10.2016 3.24316 11.8198C3.24316 16.7626 7.23733 20.7568 12.1802 20.7568C12.1915 20.7568 12.2028 20.7568 12.2141 20.7567C12.2234 20.7567 12.2327 20.7566 12.242 20.7566C12.2515 20.7567 12.261 20.7568 12.2705 20.7568C12.2961 20.7568 12.3216 20.7563 12.3469 20.7553C15.6157 20.6953 18.4459 18.8759 19.9438 16.2004C19.9486 16.1922 19.9532 16.1839 19.9576 16.1755C20.6735 14.8872 21.081 13.4019 21.081 11.8198C21.081 10.2079 20.655 8.69762 19.9093 7.39513C19.9037 7.38466 19.8978 7.37438 19.8916 7.36432C18.3804 4.74929 15.5769 2.97946 12.3469 2.92047C12.3215 2.91946 12.2961 2.91895 12.2705 2.91895C12.261 2.91895 12.2515 2.91902 12.2421 2.91915C12.2214 2.91902 12.2008 2.91895 12.1802 2.91895ZM4.38625 11.2757C4.462 10.179 4.76502 9.14561 5.24898 8.22168H8.72039C8.54813 9.16563 8.44252 10.1959 8.41585 11.2757H4.38625ZM10.1321 4.31193C8.44999 4.76362 6.995 5.7588 5.96759 7.09731H8.96746C9.09674 6.60021 9.24629 6.13654 9.41378 5.71326C9.6211 5.18931 9.86075 4.71495 10.1321 4.31193ZM9.54056 11.2757C9.56916 10.1769 9.68364 9.14499 9.86469 8.22168H14.6637C14.8439 9.14502 14.9578 10.1769 14.9862 11.2757H9.54056ZM10.4593 6.12695C10.341 6.42581 10.2317 6.75031 10.1327 7.09731H14.3969C14.2984 6.75001 14.1894 6.42524 14.0716 6.12615C13.7899 5.41099 13.4683 4.87078 13.1397 4.51875C12.8294 4.18629 12.5492 4.05709 12.3101 4.04436C12.2899 4.04403 12.2696 4.04378 12.2493 4.04361C12.0036 4.05053 11.715 4.17847 11.3952 4.51961C11.0652 4.87174 10.7422 5.41194 10.4593 6.12695ZM16.1109 11.2757C16.0844 10.1959 15.9793 9.16561 15.8078 8.22168H19.0797C19.5612 9.14546 19.8627 10.1788 19.938 11.2757H16.1109ZM15.1177 5.71406C15.2844 6.13711 15.4332 6.60051 15.5618 7.09731H18.3646C17.3882 5.81904 16.0235 4.85413 14.4446 4.37642C14.6976 4.76544 14.9221 5.21749 15.1177 5.71406ZM15.822 15.3524C15.9833 14.4365 16.083 13.4414 16.1101 12.4H19.9356C19.8588 13.4571 19.5738 14.4549 19.1214 15.3524H15.822ZM15.1181 17.9496C15.2939 17.5011 15.4499 17.0074 15.5833 16.4768H18.4296C17.4483 17.8051 16.0567 18.808 14.4415 19.2985C14.6959 18.9066 14.9216 18.4506 15.1181 17.9496ZM13.1388 19.1548C12.8282 19.4892 12.5482 19.6186 12.31 19.6314C12.2898 19.6317 12.2696 19.6319 12.2493 19.6321C12.0046 19.6252 11.7162 19.4971 11.3961 19.154C11.0658 18.7999 10.7426 18.2569 10.4596 17.5383C10.3315 17.2133 10.214 16.8581 10.1087 16.4768H14.4208C14.316 16.8584 14.1989 17.2138 14.0713 17.5391C13.7894 18.2578 13.4676 18.8009 13.1388 19.1548ZM9.41346 17.9504C9.62169 18.479 9.86252 18.9573 10.1353 19.3632C8.41629 18.9 6.93375 17.8663 5.90229 16.4768H8.94585C9.07991 17.0077 9.23669 17.5016 9.41346 17.9504ZM8.41671 12.4C8.44395 13.4413 8.54405 14.4364 8.70608 15.3524H5.20706C4.75239 14.4548 4.46586 13.457 4.38864 12.4H8.41671ZM9.84915 15.3524C9.6789 14.4553 9.57064 13.4587 9.54147 12.4H14.9853C14.9563 13.4587 14.8486 14.4552 14.6791 15.3524H9.84915Z" fill="white"/>
</svg>
