<svg width="24" height="24" fill="none" xmlns="http://www.w3.org/2000/svg"><path fill-rule="evenodd" clip-rule="evenodd" d="M14.701 6.487H8.345l-3.167 5.495h6.346L14.7 6.487Z" fill="#F97A24"/><path fill-rule="evenodd" clip-rule="evenodd" d="M8.346 6.487h6.356A6.363 6.363 0 0 0 11.524.982L8.346 6.487Z" fill="#FF612A"/><path fill-rule="evenodd" clip-rule="evenodd" d="M11.524 11.982H5.168L2 17.487h6.346l3.178-5.505Zm3.178 5.505h6.345a6.354 6.354 0 0 0-3.167-5.505h-.01l-3.168 5.505Z" fill="#FF8F0F"/><path fill-rule="evenodd" clip-rule="evenodd" d="M8.346 17.487H2l3.178 5.495h6.346a6.346 6.346 0 0 1-3.178-5.495Zm12.701 0h-6.345l-3.178 5.495h6.345l3.178-5.495Z" fill="#FFAA0F"/></svg>