<svg width="48" height="48" fill="none" xmlns="http://www.w3.org/2000/svg"><path fill-rule="evenodd" clip-rule="evenodd" d="M29.403 12.974H16.69l-6.335 10.99h12.69l6.357-10.99Z" fill="#F97A24"/><path fill-rule="evenodd" clip-rule="evenodd" d="M16.691 12.974h12.712c0-4.695-2.563-8.816-6.356-11.01l-6.356 11.01Z" fill="#FF612A"/><path fill-rule="evenodd" clip-rule="evenodd" d="M23.047 23.963H10.336L4 34.974h12.691l6.356-11.01Zm6.356 11.01h12.692c0-4.694-2.543-8.816-6.336-11.01h-.02l-6.336 11.01Z" fill="#FF8F0F"/><path fill-rule="evenodd" clip-rule="evenodd" d="M16.691 34.974H4l6.356 10.99h12.691c-3.793-2.194-6.356-6.295-6.356-10.99Zm25.404 0H29.403l-6.356 10.99H35.74l6.356-10.99Z" fill="#FFAA0F"/></svg>