<svg width="192" height="192" fill="none" xmlns="http://www.w3.org/2000/svg"><path fill-rule="evenodd" clip-rule="evenodd" d="M117.611 51.895H66.764L41.422 95.852h50.766l25.423-43.958Z" fill="#F97A24"/><path fill-rule="evenodd" clip-rule="evenodd" d="M66.766 51.896H117.613c0-18.78-10.251-35.265-25.424-44.04l-25.423 44.04Z" fill="#FF612A"/><path fill-rule="evenodd" clip-rule="evenodd" d="M92.19 95.854H41.342L16 139.895h50.766L92.19 95.854Zm25.423 44.041h50.766a50.829 50.829 0 0 0-25.342-44.041h-.082l-25.342 44.041Z" fill="#FF8F0F"/><path fill-rule="evenodd" clip-rule="evenodd" d="M66.766 139.895H16l25.424 43.959H92.19c-15.173-8.776-25.424-25.178-25.424-43.959Zm101.613 0h-50.766L92.19 183.854h50.765l25.424-43.959Z" fill="#FFAA0F"/></svg>