<svg width="90" height="24" fill="none" xmlns="http://www.w3.org/2000/svg"><g clip-path="url(#a)" fill-rule="evenodd" clip-rule="evenodd"><path d="M30.142 19.894v-4.403h4.481v-1.528h-4.48v-2.208c0-.138 0-.299.125-.414.114-.126.228-.115.353-.115h5.667V9.697h-6.59c-.342 0-.741.035-1.084.368-.307.288-.376.656-.376.978v8.851h1.904Zm7.035 0h1.687V12.17h-1.687v7.725Zm1.687-8.84V9.697h-1.687v1.357h1.687Zm1.403 8.84h1.699v-4.357c0-.586.068-1.115.387-1.517.4-.471.992-.54 1.437-.54h.718v-1.31h-1.151c-.593 0-1.585.045-2.292.677-.65.564-.798 1.391-.798 2.242v4.805Zm11.994 0v-1.31h-3.74c-.615 0-1.322-.092-1.539-.92-.057-.23-.102-.724-.102-1.058h4.446c.308 0 .593-.057.821-.298.32-.322.365-.77.365-1.162 0-.977-.182-1.942-1.083-2.506-.707-.448-1.63-.494-2.531-.494-.719 0-2.018 0-2.862.724-.832.736-.912 1.794-.912 3.242 0 1.012.045 2.08.558 2.805.628.908 1.551.977 2.338.977h4.241Zm-5.381-4.598c.011-.517 0-.931.342-1.333.467-.518 1.163-.506 1.607-.506.48 0 1.026.023 1.448.345.24.195.49.563.49 1.034 0 .207-.045.46-.376.46H46.88Zm8.528 4.598h2.132c.787 0 1.973-.057 2.69-1.103.548-.794.605-1.897.605-2.92 0-.84-.023-2.035-.81-2.851-.73-.77-1.755-.85-2.246-.85H55.1c-.285 0-.661.034-.946.252-.194.15-.434.437-.434.943v9.012h1.688v-2.483Zm0-1.31v-4.736c0-.081.023-.173.114-.265.057-.034.16-.103.228-.103h1.665c.752 0 1.254.379 1.47.885.092.195.206.61.206 1.655 0 1.15-.16 1.621-.32 1.851-.182.31-.604.713-1.448.713h-1.915Zm6.636 1.31h1.687v-4.357c0-.586.08-1.115.388-1.517.41-.471 1.003-.54 1.448-.54h.707v-1.31h-1.14c-.594 0-1.585.045-2.292.677-.65.564-.798 1.391-.798 2.242v4.805Zm8.642-7.805c-.912 0-2.258.023-3.09.816-.878.828-.98 2.288-.98 3.161 0 .782.068 2.242.98 3.081.832.782 2.178.84 3.09.84.878 0 2.269-.058 3.09-.84.57-.529.992-1.506.992-3.138 0-.816-.103-2.277-.992-3.104-.833-.793-2.178-.816-3.09-.816Zm-2.326 3.966c0-.506 0-1.495.479-2.047.479-.551 1.3-.609 1.847-.609.604 0 1.345.058 1.835.61.536.597.49 1.47.49 2.046 0 .666 0 1.402-.5 1.977-.514.563-1.187.644-1.825.644-.604 0-1.346-.08-1.836-.644-.479-.552-.49-1.345-.49-1.977Zm11.481-3.966c-.912 0-2.257.023-3.1.816-.879.828-.981 2.288-.981 3.161 0 .782.08 2.242.98 3.081.844.782 2.19.84 3.101.84.878 0 2.27-.058 3.09-.84.559-.529.98-1.506.98-3.138 0-.816-.102-2.277-.98-3.104-.844-.793-2.178-.816-3.09-.816Zm-2.326 3.966c0-.506 0-1.495.468-2.047.479-.551 1.311-.609 1.858-.609.605 0 1.346.058 1.836.61.536.597.49 1.47.49 2.046 0 .666 0 1.402-.513 1.977-.502.563-1.186.644-1.813.644-.615 0-1.345-.08-1.835-.644-.48-.552-.49-1.345-.49-1.977Zm9.897 3.84V13.48h2.098v-1.31h-2.098c-.012-.622.216-.944.433-1.093.308-.195.798-.23 1.665-.23V9.594c-.867-.023-2.27.046-2.988.644-.65.54-.786 1.437-.798 1.954h-1.071v1.288h1.071v6.414h1.688Z" fill="#fff"/><path d="M13.856 6.005H6.923L3.467 12h6.922l3.467-5.995Z" fill="#F97A24"/><path d="M6.922 6.006h6.934A6.942 6.942 0 0 0 10.39 0L6.922 6.006Z" fill="#FF612A"/><path d="M10.39 12H3.455L0 18.006h6.923L10.389 12Zm3.466 6.006h6.923A6.931 6.931 0 0 0 17.323 12h-.01l-3.457 6.006Z" fill="#FF8F0F"/><path d="M6.923 18.006H0L3.467 24h6.923a6.923 6.923 0 0 1-3.467-5.994Zm13.856 0h-6.923L10.39 24h6.922l3.467-5.994Z" fill="#FFAA0F"/></g><defs><clipPath id="a"><path fill="#fff" d="M0 0h90v24H0z"/></clipPath></defs></svg>