<svg width="480" height="128" fill="none" xmlns="http://www.w3.org/2000/svg"><path fill-rule="evenodd" clip-rule="evenodd" d="M160.758 106.103V82.621h23.898v-8.155h-23.898V62.694c0-.735 0-1.594.669-2.207.608-.674 1.216-.613 1.885-.613h30.222V51.72h-35.147c-1.824 0-3.953.184-5.777 1.962-1.642 1.532-2.006 3.494-2.006 5.211v47.21h10.154Zm37.519 0h8.999V64.902h-8.999v41.201Zm8.999-47.148V51.72h-8.999v7.235h8.999Zm7.48 47.148h9.06V82.866c0-3.127.365-5.947 2.068-8.093 2.128-2.514 5.29-2.882 7.661-2.882h3.831v-6.99h-6.141c-3.162 0-8.453.246-12.223 3.618-3.466 3.004-4.256 7.419-4.256 11.956v25.628Zm63.969 0v-6.99h-19.944c-3.284 0-7.054-.49-8.21-4.905-.304-1.226-.547-3.862-.547-5.64h23.715c1.642 0 3.162-.307 4.378-1.594 1.703-1.717 1.946-4.108 1.946-6.193 0-5.211-.973-10.361-5.777-13.366-3.77-2.39-8.695-2.636-13.499-2.636-3.831 0-10.763 0-15.263 3.863-4.439 3.924-4.864 9.564-4.864 17.29 0 5.395.243 11.097 2.979 14.959 3.345 4.844 8.27 5.212 12.466 5.212h22.62Zm-28.701-24.525c.061-2.759 0-4.966 1.824-7.112 2.494-2.759 6.203-2.697 8.574-2.697 2.554 0 5.473.122 7.723 1.839 1.277 1.042 2.615 3.004 2.615 5.518 0 1.103-.244 2.452-2.007 2.452h-18.729Zm45.484 24.525h11.371c4.196 0 10.52-.307 14.351-5.886 2.919-4.23 3.223-10.117 3.223-15.573 0-4.476-.122-10.852-4.317-15.205-3.892-4.108-9.365-4.537-11.98-4.537h-14.289c-1.521 0-3.527.184-5.047 1.349-1.034.796-2.311 2.33-2.311 5.027v48.068h8.999v-13.243Zm0-6.99v-25.26c0-.43.122-.92.608-1.41.304-.184.852-.552 1.217-.552h8.878c4.013 0 6.688 2.023 7.844 4.721.486 1.042 1.094 3.25 1.094 8.829 0 6.131-.851 8.645-1.702 9.871-.973 1.655-3.223 3.801-7.723 3.801h-10.216Zm35.39 6.99h9V82.866c0-3.127.426-5.947 2.068-8.093 2.189-2.514 5.351-2.882 7.722-2.882h3.77v-6.99h-6.081c-3.162 0-8.452.246-12.222 3.618-3.466 3.004-4.257 7.419-4.257 11.956v25.628Zm46.093-41.63c-4.865 0-12.04.122-16.479 4.353-4.682 4.414-5.23 12.2-5.23 16.86 0 4.17.365 11.956 5.23 16.432 4.439 4.169 11.614 4.475 16.479 4.475 4.682 0 12.101-.306 16.479-4.475 3.04-2.82 5.29-8.032 5.29-16.738 0-4.353-.547-12.14-5.29-16.554-4.439-4.23-11.615-4.353-16.479-4.353Zm-12.405 21.152c0-2.698 0-7.97 2.554-10.914 2.554-2.942 6.932-3.25 9.851-3.25 3.223 0 7.175.308 9.79 3.25 2.858 3.189 2.615 7.848 2.615 10.914 0 3.556 0 7.48-2.676 10.545-2.736 3.005-6.324 3.434-9.729 3.434-3.223 0-7.176-.43-9.79-3.434-2.554-2.943-2.615-7.173-2.615-10.545Zm61.233-21.153c-4.864 0-12.04.123-16.539 4.354-4.683 4.414-5.23 12.2-5.23 16.86 0 4.17.426 11.956 5.23 16.432 4.499 4.169 11.675 4.475 16.539 4.475 4.683 0 12.101-.306 16.479-4.475 2.98-2.82 5.23-8.032 5.23-16.738 0-4.353-.548-12.14-5.23-16.554-4.499-4.23-11.614-4.353-16.479-4.353Zm-12.404 21.153c0-2.698 0-7.97 2.493-10.914 2.554-2.942 6.993-3.25 9.911-3.25 3.223 0 7.176.308 9.79 3.25 2.858 3.189 2.615 7.848 2.615 10.914 0 3.556 0 7.48-2.736 10.545-2.676 3.005-6.324 3.434-9.669 3.434-3.283 0-7.175-.43-9.79-3.434-2.554-2.943-2.614-7.173-2.614-10.545Zm52.781 20.478V71.891h11.188v-6.99h-11.188c-.061-3.31 1.155-5.027 2.31-5.824 1.642-1.042 4.257-1.226 8.878-1.226v-6.683c-4.621-.123-12.1.245-15.931 3.433-3.466 2.882-4.196 7.664-4.257 10.423h-5.716v6.867h5.716v34.212h9Z" fill="#fff"/><path fill-rule="evenodd" clip-rule="evenodd" d="M73.9 32.03H36.92L18.49 64h36.92L73.9 32.03Z" fill="#F97A24"/><path fill-rule="evenodd" clip-rule="evenodd" d="M36.92 32.03H73.9C73.9 18.373 66.444 6.384 55.41 0L36.92 32.03Z" fill="#FF612A"/><path fill-rule="evenodd" clip-rule="evenodd" d="M55.41 64H18.43L0 96.03h36.92L55.41 64ZM73.9 96.03h36.921A36.968 36.968 0 0 0 92.391 64h-.06l-18.43 32.03Z" fill="#FF8F0F"/><path fill-rule="evenodd" clip-rule="evenodd" d="M36.92 96.03H0L18.49 128h36.92c-11.034-6.382-18.49-18.311-18.49-31.97Zm73.901 0h-36.92L55.41 128h36.92l18.49-31.97Z" fill="#FFAA0F"/></svg>