<svg width="176" height="48" fill="none" xmlns="http://www.w3.org/2000/svg"><path fill-rule="evenodd" clip-rule="evenodd" d="M56.132 43.083v-8.72h8.947v-3.027h-8.947v-4.37c0-.274 0-.593.25-.82.228-.25.456-.228.706-.228h11.315V22.89H55.244c-.682 0-1.48.069-2.162.729-.615.569-.751 1.297-.751 1.935v17.529h3.801Zm14.046 0h3.37V27.785h-3.37v15.298Zm3.37-17.506V22.89h-3.37v2.686h3.37Zm2.8 17.506h3.392v-8.628c0-1.161.136-2.208.773-3.005.797-.934 1.981-1.07 2.869-1.07h1.434v-2.595h-2.3c-1.183 0-3.163.09-4.575 1.343-1.297 1.115-1.594 2.754-1.594 4.439v9.516Zm23.948 0v-2.596h-7.467c-1.229 0-2.64-.182-3.073-1.82-.114-.456-.205-1.435-.205-2.095h8.879c.614 0 1.183-.114 1.639-.592.637-.637.728-1.525.728-2.3 0-1.934-.364-3.846-2.163-4.962-1.411-.888-3.255-.979-5.053-.979-1.435 0-4.03 0-5.714 1.434-1.662 1.457-1.822 3.552-1.822 6.42 0 2.003.091 4.12 1.116 5.555 1.252 1.798 3.096 1.935 4.667 1.935h8.468Zm-10.745-9.106c.023-1.025 0-1.844.683-2.641.934-1.024 2.322-1.002 3.21-1.002.956 0 2.049.046 2.891.683a2.68 2.68 0 0 1 .979 2.05c0 .409-.091.91-.751.91H89.55Zm17.028 9.106h4.257c1.571 0 3.939-.114 5.373-2.186 1.093-1.57 1.206-3.756 1.206-5.782 0-1.662-.045-4.03-1.616-5.646-1.457-1.525-3.506-1.684-4.485-1.684h-5.349c-.569 0-1.321.068-1.89.5-.387.296-.865.866-.865 1.867V48h3.369v-4.917Zm0-2.596v-9.379a.71.71 0 0 1 .228-.523c.114-.069.319-.205.455-.205h3.324c1.502 0 2.504.751 2.937 1.753.182.387.409 1.206.409 3.278 0 2.276-.318 3.21-.637 3.665-.364.615-1.207 1.411-2.891 1.411h-3.825Zm13.249 2.596h3.37v-8.628c0-1.161.159-2.208.774-3.005.819-.934 2.003-1.07 2.891-1.07h1.411v-2.595h-2.276c-1.184 0-3.165.09-4.576 1.343-1.298 1.115-1.594 2.754-1.594 4.439v9.516Zm17.256-15.458c-1.821 0-4.507.046-6.169 1.617-1.753 1.639-1.958 4.53-1.958 6.26 0 1.548.137 4.44 1.958 6.1 1.662 1.549 4.348 1.663 6.169 1.663 1.753 0 4.53-.114 6.17-1.662 1.138-1.047 1.98-2.982 1.98-6.215 0-1.616-.205-4.507-1.98-6.146-1.662-1.571-4.349-1.617-6.17-1.617Zm-4.644 7.854c0-1.002 0-2.96.956-4.052.956-1.093 2.596-1.206 3.688-1.206 1.207 0 2.687.113 3.665 1.206 1.07 1.184.979 2.914.979 4.052 0 1.32 0 2.778-1.001 3.916-1.025 1.115-2.368 1.275-3.643 1.275-1.206 0-2.686-.16-3.665-1.275-.956-1.093-.979-2.664-.979-3.916Zm22.924-7.854c-1.821 0-4.507.046-6.192 1.617-1.752 1.639-1.957 4.53-1.957 6.26 0 1.548.159 4.44 1.957 6.1 1.685 1.549 4.371 1.663 6.192 1.663 1.753 0 4.531-.114 6.17-1.662 1.115-1.047 1.958-2.982 1.958-6.215 0-1.616-.205-4.507-1.958-6.146-1.685-1.571-4.348-1.617-6.17-1.617Zm-4.644 7.854c0-1.002 0-2.96.934-4.052.956-1.093 2.618-1.206 3.71-1.206 1.207 0 2.687.113 3.666 1.206 1.07 1.184.979 2.914.979 4.052 0 1.32 0 2.778-1.025 3.916-1.002 1.115-2.367 1.275-3.62 1.275-1.229 0-2.686-.16-3.665-1.275-.956-1.093-.979-2.664-.979-3.916Zm19.76 7.604V30.38h4.189v-2.595h-4.189c-.022-1.23.433-1.867.865-2.163.615-.387 1.594-.455 3.324-.455v-2.482c-1.73-.045-4.53.091-5.964 1.275-1.298 1.07-1.571 2.846-1.594 3.87h-2.14v2.55h2.14v12.703h3.369Z" fill="#fff"/><path fill-rule="evenodd" clip-rule="evenodd" d="M24.967 10.82H12.474L6.247 21.623H18.72l6.247-10.801Z" fill="#F97A24"/><path fill-rule="evenodd" clip-rule="evenodd" d="M12.474 10.821h12.493c0-4.614-2.519-8.664-6.247-10.82l-6.246 10.82Z" fill="#FF612A"/><path fill-rule="evenodd" clip-rule="evenodd" d="M18.72 21.622H6.227L0 32.442h12.473l6.247-10.82Zm6.247 10.82H37.44a12.49 12.49 0 0 0-6.226-10.82h-.02l-6.227 10.82Z" fill="#FF8F0F"/><path fill-rule="evenodd" clip-rule="evenodd" d="M12.473 32.443H0l6.247 10.8H18.72c-3.728-2.156-6.247-6.186-6.247-10.8Zm24.967 0H24.967l-6.247 10.8h12.473l6.247-10.8Z" fill="#FFAA0F"/></svg>