<svg width="24" height="24" fill="none" xmlns="http://www.w3.org/2000/svg"><path fill-rule="evenodd" clip-rule="evenodd" d="M14.701 6.505H8.345L5.178 12h6.346L14.7 6.505Z" fill="#F16C12"/><path fill-rule="evenodd" clip-rule="evenodd" d="M8.346 6.505h6.356A6.363 6.363 0 0 0 11.524 1L8.346 6.505Z" fill="#EE521C"/><path fill-rule="evenodd" clip-rule="evenodd" d="M11.524 12H5.168L2 17.505h6.346L11.524 12Zm3.178 5.505h6.345A6.354 6.354 0 0 0 17.88 12h-.01l-3.168 5.505Z" fill="#F58709"/><path fill-rule="evenodd" clip-rule="evenodd" d="M8.346 17.505H2L5.178 23h6.346a6.346 6.346 0 0 1-3.178-5.495Zm12.701 0h-6.345L11.524 23h6.345l3.178-5.495Z" fill="#F9A100"/></svg>