<svg width="48" height="48" fill="none" xmlns="http://www.w3.org/2000/svg"><path fill-rule="evenodd" clip-rule="evenodd" d="M29.403 13.01H16.69L10.356 24h12.69l6.357-10.99Z" fill="#F16C12"/><path fill-rule="evenodd" clip-rule="evenodd" d="M16.691 13.01h12.712c0-4.695-2.563-8.816-6.356-11.01l-6.356 11.01Z" fill="#EE521C"/><path fill-rule="evenodd" clip-rule="evenodd" d="M23.047 24H10.336L4 35.01h12.691L23.047 24Zm6.356 11.01h12.692c0-4.695-2.543-8.816-6.336-11.01h-.02l-6.336 11.01Z" fill="#F58709"/><path fill-rule="evenodd" clip-rule="evenodd" d="M16.691 35.01H4L10.356 46h12.691c-3.793-2.194-6.356-6.295-6.356-10.99Zm25.404 0H29.403L23.047 46H35.74l6.356-10.99Z" fill="#F9A100"/></svg>