<svg width="192" height="192" fill="none" xmlns="http://www.w3.org/2000/svg"><path fill-rule="evenodd" clip-rule="evenodd" d="M117.611 52.04H66.764L41.422 96h50.766l25.423-43.96Z" fill="#F16C12"/><path fill-rule="evenodd" clip-rule="evenodd" d="M66.766 52.04H117.613c0-18.78-10.251-35.265-25.424-44.04L66.766 52.04Z" fill="#EE521C"/><path fill-rule="evenodd" clip-rule="evenodd" d="M92.19 96H41.342L16 140.04h50.766L92.19 96Zm25.423 44.04h50.766A50.83 50.83 0 0 0 143.037 96h-.082l-25.342 44.04Z" fill="#F58709"/><path fill-rule="evenodd" clip-rule="evenodd" d="M66.766 140.04H16l25.424 43.959H92.19c-15.173-8.776-25.424-25.178-25.424-43.959Zm101.613 0h-50.766L92.19 183.999h50.765l25.424-43.959Z" fill="#F9A100"/></svg>