<svg width="180" height="48" fill="none" xmlns="http://www.w3.org/2000/svg"><g clip-path="url(#a)" fill-rule="evenodd" clip-rule="evenodd"><path d="M60.285 39.788v-8.805h8.961v-3.058h-8.961V23.51c0-.276 0-.597.25-.827.229-.253.457-.23.707-.23h11.333v-3.058h-13.18c-.684 0-1.482.069-2.166.736-.616.574-.752 1.31-.752 1.954v17.703h3.808Zm14.069 0h3.375v-15.45h-3.375v15.45Zm3.375-17.68v-2.713h-3.375v2.713h3.375Zm2.805 17.68h3.397v-8.713c0-1.173.137-2.23.776-3.035.798-.943 1.983-1.08 2.873-1.08h1.436v-2.622h-2.303c-1.185 0-3.17.092-4.583 1.357-1.3 1.126-1.596 2.782-1.596 4.483v9.61Zm23.988 0v-2.62h-7.48c-1.23 0-2.644-.184-3.078-1.84-.114-.46-.205-1.448-.205-2.115h8.893c.616 0 1.186-.115 1.642-.598.639-.644.73-1.54.73-2.322 0-1.954-.365-3.886-2.166-5.012-1.414-.897-3.261-.989-5.063-.989-1.436 0-4.036 0-5.723 1.449-1.665 1.471-1.824 3.586-1.824 6.483 0 2.024.09 4.162 1.117 5.61 1.254 1.816 3.101 1.954 4.675 1.954h8.482Zm-10.763-9.196c.023-1.035 0-1.862.684-2.667.935-1.035 2.326-1.012 3.216-1.012.957 0 2.052.046 2.896.69.478.39.98 1.127.98 2.07 0 .413-.091.919-.752.919h-7.024Zm17.057 9.197h4.264c1.573 0 3.945-.116 5.382-2.208 1.094-1.586 1.208-3.793 1.208-5.84 0-1.678-.046-4.07-1.619-5.701-1.459-1.541-3.512-1.702-4.492-1.702H110.2c-.57 0-1.322.07-1.892.506-.388.299-.867.874-.867 1.885v18.026h3.375v-4.967Zm0-2.622v-9.472c0-.161.045-.345.228-.529.114-.069.319-.207.456-.207h3.329c1.505 0 2.509.759 2.942 1.77.182.391.41 1.22.41 3.311 0 2.3-.319 3.242-.638 3.702-.365.62-1.209 1.425-2.896 1.425h-3.831Zm13.271 2.621h3.375v-8.713c0-1.173.16-2.23.775-3.035.821-.943 2.007-1.08 2.896-1.08h1.414v-2.622h-2.28c-1.186 0-3.17.092-4.584 1.357-1.299 1.126-1.596 2.782-1.596 4.483v9.61Zm17.285-15.61c-1.824 0-4.515.045-6.18 1.632-1.756 1.655-1.961 4.575-1.961 6.322 0 1.564.137 4.484 1.961 6.162 1.665 1.564 4.356 1.678 6.18 1.678 1.756 0 4.538-.114 6.179-1.678 1.141-1.058 1.984-3.012 1.984-6.277 0-1.632-.205-4.552-1.984-6.207-1.664-1.587-4.355-1.633-6.179-1.633Zm-4.652 7.931c0-1.011 0-2.989.958-4.092.957-1.104 2.599-1.219 3.694-1.219 1.208 0 2.691.115 3.671 1.219 1.072 1.195.981 2.943.981 4.092 0 1.334 0 2.805-1.004 3.955-1.026 1.126-2.371 1.287-3.648 1.287-1.209 0-2.691-.16-3.671-1.287-.958-1.104-.981-2.69-.981-3.955Zm22.963-7.932c-1.825 0-4.515.046-6.203 1.633-1.756 1.655-1.961 4.575-1.961 6.322 0 1.564.16 4.484 1.961 6.162 1.688 1.564 4.378 1.678 6.203 1.678 1.755 0 4.537-.114 6.179-1.678 1.117-1.058 1.961-3.012 1.961-6.277 0-1.632-.205-4.552-1.961-6.207-1.687-1.587-4.355-1.633-6.179-1.633Zm-4.652 7.932c0-1.011 0-2.989.935-4.092.957-1.104 2.622-1.219 3.717-1.219 1.208 0 2.69.115 3.671 1.219 1.072 1.195.98 2.943.98 4.092 0 1.334 0 2.805-1.026 3.955-1.003 1.126-2.371 1.287-3.625 1.287-1.232 0-2.691-.16-3.672-1.287-.957-1.104-.98-2.69-.98-3.955Zm19.793 7.68v-12.83h4.195v-2.62h-4.195c-.023-1.242.433-1.886.866-2.185.616-.391 1.596-.46 3.329-.46v-2.506c-1.733-.046-4.537.092-5.974 1.288-1.3 1.08-1.573 2.873-1.596 3.908h-2.144v2.575h2.144v12.83h3.375Z" fill="#2C2C2C"/><path d="M27.713 12.011H13.845L6.934 24h13.845l6.934-11.989Z" fill="#F16C12"/><path d="M13.845 12.011h13.868c0-5.122-2.796-9.617-6.934-12.01l-6.934 12.01Z" fill="#EE521C"/><path d="M20.779 24H6.911L0 36.011h13.845L20.78 24Zm6.934 12.011h13.845c0-5.122-2.773-9.618-6.911-12.011h-.023l-6.911 12.011Z" fill="#F58709"/><path d="M13.845 36.011H0l6.934 11.99h13.845c-4.138-2.394-6.934-6.868-6.934-11.99Zm27.713 0H27.713l-6.934 11.99h13.845l6.934-11.99Z" fill="#F9A100"/></g><defs><clipPath id="a"><path fill="#fff" d="M0 0h180v48H0z"/></clipPath></defs></svg>