<svg width="470" height="128" fill="none" xmlns="http://www.w3.org/2000/svg"><path fill-rule="evenodd" clip-rule="evenodd" d="M149.818 114.887v-23.25h23.879v-8.074h-23.879V71.907c0-.728 0-1.578.669-2.185.607-.668 1.215-.607 1.883-.607h30.198V61.04h-35.119c-1.823 0-3.95.182-5.773 1.942-1.64 1.518-2.005 3.46-2.005 5.16v46.744h10.147Zm37.489 0h8.993V74.093h-8.993v40.794Zm8.993-46.683V61.04h-8.993v7.163h8.993Zm7.473 46.683h9.053V91.879c0-3.096.365-5.888 2.066-8.013 2.127-2.489 5.286-2.853 7.656-2.853h3.828v-6.92h-6.137c-3.159 0-8.446.242-12.213 3.581-3.463 2.975-4.253 7.346-4.253 11.838v25.375Zm63.92 0v-6.92h-19.93c-3.281 0-7.048-.486-8.202-4.857-.304-1.214-.547-3.824-.547-5.585h23.696c1.641 0 3.16-.303 4.375-1.578 1.701-1.7 1.944-4.068 1.944-6.132 0-5.16-.972-10.259-5.772-13.234-3.767-2.367-8.689-2.61-13.489-2.61-3.827 0-10.754 0-15.25 3.825-4.436 3.885-4.861 9.47-4.861 17.119 0 5.342.243 10.988 2.977 14.812 3.342 4.796 8.263 5.16 12.456 5.16h22.603Zm-28.679-24.282c.061-2.732 0-4.918 1.823-7.042 2.491-2.732 6.197-2.671 8.567-2.671 2.552 0 5.468.121 7.716 1.82 1.276 1.033 2.613 2.975 2.613 5.464 0 1.093-.243 2.429-2.005 2.429h-18.714Zm45.448 24.282h11.362c4.193 0 10.512-.303 14.34-5.828 2.916-4.188 3.22-10.016 3.22-15.42 0-4.43-.121-10.744-4.314-15.054-3.888-4.068-9.357-4.492-11.97-4.492h-14.278c-1.519 0-3.524.182-5.043 1.335-1.033.79-2.309 2.307-2.309 4.978V128h8.992v-13.113Zm0-6.92V82.956c0-.425.122-.911.608-1.397.304-.182.851-.546 1.215-.546h8.871c4.01 0 6.684 2.003 7.838 4.674.486 1.032 1.094 3.218 1.094 8.742 0 6.071-.851 8.56-1.701 9.774-.973 1.639-3.221 3.764-7.717 3.764h-10.208Zm35.363 6.92h8.992V91.879c0-3.096.425-5.888 2.066-8.013 2.187-2.489 5.347-2.853 7.717-2.853h3.767v-6.92h-6.076c-3.16 0-8.446.242-12.213 3.581-3.463 2.975-4.253 7.346-4.253 11.838v25.375Zm46.056-41.22c-4.861 0-12.031.122-16.466 4.31-4.679 4.371-5.226 12.081-5.226 16.695 0 4.128.365 11.838 5.226 16.269 4.435 4.128 11.605 4.432 16.466 4.432 4.678 0 12.091-.304 16.466-4.432 3.038-2.792 5.286-7.952 5.286-16.573 0-4.31-.547-12.02-5.286-16.39-4.436-4.19-11.605-4.31-16.466-4.31Zm-12.395 20.944c0-2.67 0-7.892 2.552-10.806 2.552-2.913 6.926-3.217 9.843-3.217 3.22 0 7.169.304 9.782 3.218 2.856 3.156 2.613 7.77 2.613 10.805 0 3.521 0 7.406-2.674 10.442-2.734 2.974-6.319 3.399-9.721 3.399-3.221 0-7.17-.425-9.783-3.399-2.552-2.914-2.612-7.103-2.612-10.442Zm61.185-20.944c-4.861 0-12.03.122-16.527 4.31-4.678 4.371-5.225 12.081-5.225 16.695 0 4.128.425 11.838 5.225 16.269 4.497 4.128 11.666 4.432 16.527 4.432 4.679 0 12.091-.304 16.466-4.432 2.977-2.792 5.225-7.952 5.225-16.573 0-4.31-.547-12.02-5.225-16.39-4.496-4.19-11.605-4.31-16.466-4.31Zm-12.395 20.944c0-2.67 0-7.892 2.491-10.806 2.552-2.913 6.988-3.217 9.904-3.217 3.22 0 7.17.304 9.782 3.218 2.856 3.156 2.613 7.77 2.613 10.805 0 3.521 0 7.406-2.734 10.442-2.674 2.974-6.319 3.399-9.661 3.399-3.281 0-7.17-.425-9.782-3.399-2.552-2.914-2.613-7.103-2.613-10.442Zm52.74 20.276V81.013h11.179v-6.92h-11.179c-.061-3.279 1.154-4.978 2.308-5.768 1.641-1.032 4.254-1.214 8.871-1.214v-6.617c-4.617-.121-12.091.243-15.919 3.4-3.463 2.853-4.192 7.588-4.253 10.32h-5.711v6.799h5.711v33.874h8.993Z" fill="#404040"/><path fill-rule="evenodd" clip-rule="evenodd" d="M66.635 28.856H33.29L16.67 57.658h33.292l16.673-28.802Z" fill="#F16C12"/><path fill-rule="evenodd" clip-rule="evenodd" d="M33.291 28.857H66.638c0-12.305-6.723-23.106-16.673-28.856L33.292 28.857Z" fill="#EE521C"/><path fill-rule="evenodd" clip-rule="evenodd" d="M49.964 57.658H16.62L0 86.514h33.291l16.673-28.856Zm16.673 28.856h33.291A33.3 33.3 0 0 0 83.31 57.658h-.054l-16.62 28.856Z" fill="#F58709"/><path fill-rule="evenodd" clip-rule="evenodd" d="M33.291 86.514H0l16.673 28.802h33.291c-9.95-5.75-16.672-16.497-16.672-28.802Zm66.637 0H66.637l-16.673 28.802h33.292l16.672-28.802Z" fill="#F9A100"/></svg>