<svg width="88" height="24" fill="none" xmlns="http://www.w3.org/2000/svg"><g clip-path="url(#a)" fill-rule="evenodd" clip-rule="evenodd"><path d="M28.066 21.541v-4.36h4.473v-1.513h-4.473v-2.185c0-.137 0-.296.125-.41.114-.125.228-.114.353-.114h5.657v-1.514h-6.579c-.341 0-.74.034-1.081.364-.308.285-.376.65-.376.968v8.764h1.9Zm7.023 0h1.684v-7.649H35.09v7.65Zm1.684-8.753v-1.343H35.09v1.343h1.684Zm1.4 8.753h1.697v-4.314c0-.58.068-1.104.387-1.502.398-.467.99-.535 1.434-.535h.717v-1.298h-1.15c-.592 0-1.582.046-2.288.672-.648.558-.797 1.377-.797 2.22v4.757Zm11.975 0v-1.297h-3.734c-.614 0-1.32-.091-1.536-.91-.057-.229-.103-.718-.103-1.048h4.44c.307 0 .591-.057.819-.296.319-.319.364-.763.364-1.15 0-.967-.182-1.923-1.081-2.481-.706-.444-1.628-.49-2.527-.49-.717 0-2.015 0-2.857.718-.83.728-.91 1.775-.91 3.21 0 1.001.045 2.06.557 2.777.626.899 1.548.967 2.334.967h4.234Zm-5.373-4.553c.012-.512 0-.922.342-1.32.467-.512 1.16-.5 1.605-.5.478 0 1.024.022 1.445.34.24.194.49.558.49 1.025 0 .205-.046.455-.376.455h-3.506Zm8.514 4.553h2.129c.785 0 1.97-.057 2.686-1.092.547-.786.604-1.879.604-2.892 0-.83-.023-2.014-.809-2.822-.728-.763-1.753-.843-2.242-.843h-2.675c-.285 0-.66.035-.945.25-.193.149-.432.433-.432.934V24h1.684V21.54Zm0-1.297v-4.69c0-.08.023-.17.114-.262.057-.034.16-.102.228-.102h1.662c.751 0 1.252.376 1.468.876.091.194.205.604.205 1.64 0 1.138-.16 1.604-.319 1.832-.182.307-.603.706-1.445.706h-1.913Zm6.625 1.297h1.685v-4.314c0-.58.08-1.104.387-1.502.41-.467 1.001-.535 1.445-.535h.706v-1.298h-1.138c-.592 0-1.583.046-2.288.672-.649.558-.797 1.377-.797 2.22v4.757Zm8.628-7.728c-.91 0-2.254.022-3.085.808-.876.82-.979 2.265-.979 3.13 0 .774.069 2.22.98 3.05.83.775 2.173.831 3.084.831.876 0 2.265-.056 3.084-.83.57-.524.99-1.492.99-3.108 0-.808-.102-2.254-.99-3.073-.83-.786-2.174-.808-3.084-.808ZM66.22 17.74c0-.501 0-1.48.478-2.026.478-.547 1.298-.604 1.844-.604.603 0 1.343.057 1.832.604.535.591.49 1.457.49 2.026 0 .66 0 1.388-.5 1.957-.513.558-1.185.638-1.822.638-.603 0-1.343-.08-1.833-.638-.478-.546-.49-1.331-.49-1.957Zm11.462-3.927c-.91 0-2.254.022-3.096.808-.876.82-.979 2.265-.979 3.13 0 .774.08 2.22.979 3.05.842.775 2.185.831 3.096.831.876 0 2.265-.056 3.085-.83.557-.524.979-1.492.979-3.108 0-.808-.103-2.254-.98-3.073-.842-.786-2.173-.808-3.084-.808ZM75.36 17.74c0-.501 0-1.48.467-2.026.478-.547 1.309-.604 1.855-.604.603 0 1.343.057 1.833.604.534.591.489 1.457.489 2.026 0 .66 0 1.388-.512 1.957-.501.558-1.184.638-1.81.638-.615 0-1.343-.08-1.833-.638-.478-.546-.489-1.331-.489-1.957Zm9.88 3.801V15.19h2.094v-1.298H85.24c-.011-.614.216-.933.433-1.081.307-.194.796-.228 1.661-.228v-1.24c-.865-.023-2.265.045-2.982.637-.649.535-.785 1.423-.797 1.935h-1.07v1.275h1.07v6.351h1.685Z" fill="#404040"/><path d="M12.483 5.41H6.236l-3.113 5.4H9.36l3.123-5.4Z" fill="#F16C12"/><path d="M6.237 5.41h6.247A6.254 6.254 0 0 0 9.36 0L6.237 5.41Z" fill="#EE521C"/><path d="M9.36 10.81H3.113L0 16.222h6.237l3.123-5.41Zm3.123 5.411h6.237a6.245 6.245 0 0 0-3.113-5.41h-.01l-3.114 5.41Z" fill="#F58709"/><path d="M6.237 16.221H0l3.123 5.4H9.36a6.237 6.237 0 0 1-3.123-5.4Zm12.483 0h-6.237l-3.123 5.4h6.237l3.123-5.4Z" fill="#F9A100"/></g><defs><clipPath id="a"><path fill="#fff" d="M0 0h88v24H0z"/></clipPath></defs></svg>